<svg width="42" height="37" viewBox="0 0 42 37" fill="none" xmlns="http://www.w3.org/2000/svg">
<path d="M21.6403 1.15276C21.961 1.14313 22.2329 1.2117 22.2994 0.849917C22.4722 0.69244 24.039 0.7627 24.3403 0.816729C24.3962 0.826749 24.4072 0.913829 24.4243 0.956162C24.4364 1.17471 25.0302 1.39684 25.091 1.52623C25.1795 1.71417 25.1853 1.68907 25.3629 1.87565C25.3846 2.18822 25.5217 2.14164 25.7243 2.1941C25.8196 2.21875 25.7556 2.66551 25.72 2.76174C25.6324 2.84468 25.6766 2.82137 25.5369 2.8359C25.4495 2.74491 25.474 2.69832 25.4566 2.54094C25.3167 2.39173 25.0517 2.50807 24.8656 2.4566C24.677 2.4044 24.8086 2.3082 24.7308 2.15019C24.3024 2.0395 24.1201 1.9525 23.9728 2.43389C23.8737 2.48938 23.7147 2.47345 23.5945 2.47255C23.5987 3.27568 23.5979 4.07884 23.5922 4.88196C23.9336 4.92059 24.1436 5.09102 24.409 5.32079C24.4578 5.80486 24.8125 5.40202 25.0961 5.6491C25.099 5.74029 25.0925 5.78304 25.0796 5.87366C25.1897 5.98372 25.2386 5.89245 25.3934 6.00081C25.4395 6.10686 25.4368 6.06376 25.4145 6.16616C25.1892 6.29305 23.4269 6.19625 23.0345 6.22278C22.7966 6.23882 23.0094 6.42917 22.835 6.61955C22.7298 6.61818 22.7183 6.61428 22.6331 6.55242C22.5223 6.24269 22.7027 5.75457 22.4666 5.58135C22.3307 5.58254 22.3732 5.56357 22.2876 5.6354C22.23 5.79529 22.2549 6.0605 22.2604 6.239C22.1078 6.23506 21.8095 6.19597 21.6841 6.26989C21.5706 6.33678 21.6153 6.3995 21.5747 6.54078C21.5463 6.55596 21.5319 6.56481 21.4992 6.57189C20.6756 6.75032 21.1857 5.99304 20.2515 6.23322C20.1436 6.41399 20.4447 6.64156 19.9178 6.57431C19.7806 6.55679 19.7099 6.56322 19.5946 6.63512C19.548 6.72954 19.5341 6.74143 19.5452 6.84108C19.8315 7.04147 20.7568 6.83758 20.9921 7.08487L20.9604 7.15312C20.7096 7.36219 20.2878 7.21567 19.9418 7.24996C19.8467 7.34026 19.8879 7.40909 19.8464 7.58592C19.7581 7.63972 19.7993 7.62809 19.6789 7.61458C19.659 7.58141 19.639 7.54838 19.6188 7.5155C19.5528 7.40844 19.4609 7.2341 19.3362 7.2044L19.2782 7.25697C19.2059 7.46672 19.223 7.70935 19.2232 7.93413C19.5571 7.93786 19.8319 8.02519 19.9494 7.67629C20.1464 7.56464 21.4787 7.58961 21.6393 7.76023C21.4923 8.17272 20.466 7.77887 20.2298 7.97486C20.2171 8.05829 20.2267 8.10074 20.2369 8.18388C20.063 8.32701 19.7084 8.13398 19.4987 8.38529C19.5023 8.47811 19.5209 8.48863 19.5814 8.56628C19.6735 8.60519 19.7353 8.60758 19.8327 8.61889C19.9415 8.73946 19.9098 8.69722 19.945 8.86777C20.0395 8.97483 20.0833 8.95716 20.2466 9.00367C20.2353 9.20861 20.2551 9.48304 20.1128 9.61319C20.0099 9.59202 20.0421 9.59881 19.9546 9.51343C19.8955 9.15239 19.4807 9.10274 19.2696 9.28503C19.2237 9.41189 19.2325 9.36561 19.2688 9.5079C19.297 9.53493 19.4716 9.63342 19.453 9.61319C19.6105 9.78406 19.7355 10.0781 19.9756 10.162C20.1803 10.2335 20.5072 10.2736 20.65 10.4019L20.6531 10.4879C20.4826 10.6808 19.8293 10.5042 19.5788 10.6178C19.5291 10.7064 19.5001 10.741 19.5129 10.8441C19.6139 10.9468 19.7055 10.9472 19.8573 10.9913C19.9479 11.0848 19.9238 11.0439 19.9256 11.1999C20.0952 11.4313 21.6595 11.074 21.6992 11.4664C21.4452 11.7598 20.5261 11.465 20.2466 11.634C20.2364 11.9744 20.2545 11.9136 20.0204 12.0377C19.9572 12.0712 19.9086 12.5203 19.887 12.6443C20.1808 12.7044 20.1506 12.687 20.2644 12.9207C20.288 12.9692 20.5955 13.0578 20.6381 13.1404C20.6584 13.1799 20.6478 13.1728 20.6436 13.2204C20.5888 13.2594 20.5507 13.2742 20.4894 13.2846C19.8836 13.388 20.0192 13.2098 19.6935 12.9867L19.6374 13.0075C19.5606 13.1434 19.5261 13.4487 19.5323 13.6053C19.6485 13.7509 19.9928 13.6337 19.9344 13.9188C19.7004 14.1135 18.9147 13.9199 18.5926 14.0593C18.4233 14.4307 18.7289 14.2704 18.8932 14.4181C18.9352 14.5921 18.9021 14.8844 18.8903 15.0723C19.4938 15.0385 20.3465 15.0711 20.9599 15.0807C20.9565 14.8927 20.9352 14.5917 20.9881 14.4218C21.0855 14.3347 21.1291 14.3378 21.2241 14.4049C21.3457 14.7062 21.1343 15.1356 21.3989 15.3519C21.9088 15.4066 21.5054 15.813 21.6684 16.0657C21.758 16.1067 21.7969 16.1102 21.8921 16.1259C21.976 16.2408 21.9503 16.2213 21.9618 16.385C22.0973 16.5288 22.6488 16.4482 22.9427 16.4821C23.0052 16.5518 22.9816 16.6031 22.982 16.7215C23.1161 16.9399 25.4241 16.6717 25.6737 16.857C25.679 16.952 25.6766 17.0166 25.6722 17.1099C25.8463 17.268 26.5904 17.0805 27.0048 17.1982C27.0851 17.2888 27.0583 17.2912 27.0636 17.4452C27.1757 17.6235 27.4144 17.4917 27.5614 17.5676C27.6144 17.6745 27.5902 17.8338 27.5826 17.958C27.7801 17.9467 27.9884 17.947 28.187 17.9441C28.1786 18.1907 28.1563 18.372 28.1241 18.6169C28.4832 18.6133 28.8439 18.7273 29.1096 19.0338C29.1159 19.0411 29.0825 19.1325 29.1428 19.2335C29.3216 19.2725 30.5639 19.2528 30.8324 19.2534C30.7817 18.9071 30.8581 18.5964 30.7985 18.262C30.6729 18.1364 30.6667 18.2676 30.4915 18.1779C30.4085 18.0179 30.5146 17.7657 30.452 17.5276C30.3512 17.4501 30.3179 17.4712 30.17 17.4546C30.0455 17.3386 30.1618 17.3431 30.0638 17.1782C29.9526 17.1144 29.7307 17.146 29.5708 17.1375C29.4328 17.0133 29.508 16.9278 29.4327 16.8588C29.3533 16.7859 28.8678 16.4804 28.8308 16.3911C28.7163 16.1149 28.7375 14.711 28.7796 14.461C28.8953 14.3254 28.8826 14.4521 29.0485 14.3537C29.0983 14.1806 29.0997 13.5663 29.1036 13.35C29.2867 13.3442 29.49 13.3216 29.6739 13.3052L29.8258 13.0181C30.116 13.0112 30.3901 13.0559 30.5126 12.7374L30.524 12.707C30.7145 12.5651 32.8016 12.6217 33.1677 12.6539C33.2668 12.7426 33.2154 12.7432 33.2369 12.9364C33.4728 13.0914 35.1699 12.9118 35.4987 13.039C35.5754 13.1379 35.5633 13.0971 35.5748 13.2038C35.3937 13.3818 35.0195 13.1692 34.8563 13.4646C34.8718 13.5967 34.8486 13.5597 34.927 13.6287C35.2828 13.6416 35.8836 13.6807 36.219 13.6431C36.3407 13.5326 36.215 13.4997 36.3147 13.3509C36.4661 13.3035 36.7378 13.338 36.8925 13.3735C36.9799 13.4715 36.9676 13.4299 36.9648 13.5326C36.77 13.721 36.5839 13.4939 36.5485 13.8889C36.5398 13.9848 36.3415 13.9909 36.2323 14.0363L36.2063 14.1093C36.2403 14.1947 36.2479 14.2078 36.2576 14.2979C35.9823 14.5388 35.7733 14.2124 35.5534 14.4507C35.5278 14.5486 35.5077 14.5927 35.5417 14.6905C35.6399 14.7739 36.9915 14.7502 37.2296 14.7516C37.3004 14.4413 37.2654 14.521 37.5067 14.3273C37.5288 14.3094 37.6632 14.1065 37.6975 14.0589C37.8319 14.0225 37.7774 14.0194 37.9035 14.0665C37.9627 14.2261 37.9642 14.5201 37.9328 14.6867C37.7651 14.8127 37.7879 14.6484 37.6043 14.7588C37.5544 14.8953 37.5855 15.2313 37.592 15.3924C37.4179 15.3759 37.0948 15.3236 36.9539 15.3865C36.9167 15.4885 36.9312 15.5667 36.938 15.6757C37.1545 15.888 37.8384 15.5394 37.9732 15.8987C37.9324 16.0286 37.9653 15.9864 37.8522 16.0581C37.5436 16.0606 36.5518 16.0914 36.3169 16.0366C36.241 15.9528 36.267 15.9581 36.2688 15.8091C36.1317 15.6367 35.241 15.6205 35.5968 16.0685C35.7175 16.118 36.02 16.0775 36.1962 16.0864C36.2956 16.149 36.2378 16.2321 36.2992 16.4243C36.4947 16.5522 36.7559 16.3224 37.0103 16.5858L37.007 16.6586C36.8502 16.8264 35.5013 16.8111 35.2563 16.7464C35.1578 16.6245 35.2456 16.6492 35.1903 16.4602C35.0925 16.401 34.8257 16.4437 34.6629 16.4327C34.5359 16.3256 34.6243 16.2897 34.5846 16.2233C34.3628 15.8526 33.988 16.3527 33.8833 15.7728C33.7463 15.709 33.6046 15.762 33.4538 15.7616C33.095 15.7608 33.3314 15.5552 33.1667 15.4071C32.8282 15.3503 32.4651 15.416 32.1214 15.3869C31.9678 15.374 31.9305 15.3753 31.8433 15.4941C31.8438 15.63 31.8285 15.5819 31.8883 15.6906C32.0609 15.7625 32.2785 15.7036 32.4997 15.7488C32.6028 15.8937 32.4586 15.9273 32.542 16.078C32.7376 16.1463 32.9473 16.0162 33.1863 16.0797C33.2777 16.1878 33.2008 16.1827 33.2192 16.3285C33.244 16.525 33.3838 16.3975 33.5349 16.5283C33.5548 16.631 33.5569 16.6562 33.609 16.7459C33.7088 16.7826 33.7583 16.788 33.8606 16.8036C33.9446 16.8974 33.9097 16.9285 33.9161 17.0973C34.1591 17.2899 34.9584 17.0562 35.1933 17.2395C35.306 17.5899 35.571 17.4923 35.5558 17.6104C35.497 18.0666 35.7856 17.8208 35.9332 18.043C35.9542 18.2934 36.0645 18.187 36.2146 18.2967C36.2497 18.3222 36.1984 18.4556 36.3223 18.6012C36.4455 18.6582 36.7779 18.6184 36.9424 18.6122C36.9416 18.4863 36.9246 18.3818 37.0078 18.2908C37.1432 18.2118 37.4088 18.2502 37.5823 18.2575C37.5718 18.4739 37.5776 18.704 37.5794 18.9216C37.3825 18.9305 37.1003 18.8909 36.9293 18.9568C36.903 19.0418 36.9333 19.0538 36.985 19.1545L36.9445 19.1964C36.6768 19.255 36.2685 19.2418 35.9875 19.2147C35.8913 19.2054 35.891 19.084 35.8394 18.975C35.7116 18.9116 35.4703 18.9422 35.286 18.9231C35.198 18.849 35.2313 18.8004 35.1974 18.6435C35.1003 18.578 34.7058 18.6091 34.5827 18.6196C34.5203 18.6652 34.5168 18.6926 34.485 18.7668C34.5385 18.8736 34.7026 18.9145 34.8304 18.968C34.9093 19.0703 34.8879 19.032 34.8793 19.1866C34.9848 19.2916 35.1006 19.2216 35.1678 19.2944C35.2516 19.3853 35.1177 19.4107 35.2635 19.553C35.4845 19.6236 35.7554 19.4921 35.9052 19.6257C35.9242 19.7333 35.9055 19.8196 35.8898 19.9267C36.0306 20.1028 36.3863 19.8359 36.5745 20.0886C36.564 20.231 36.5857 20.1888 36.5127 20.2834C36.3075 20.3171 35.8499 20.343 35.6608 20.2694C35.5742 20.1681 35.6033 20.1805 35.6066 20.0086C35.4008 19.8407 34.9681 20.0216 34.6158 19.9248C34.5009 19.8043 34.6407 19.833 34.5401 19.6438C34.403 19.5646 34.0235 19.5143 33.9059 19.6269C33.9178 19.7136 33.923 19.7655 33.9246 19.8529C33.8499 19.9395 33.7132 19.9518 33.5831 19.9997C33.5188 20.1135 33.534 20.0623 33.5462 20.2135C33.6731 20.3443 33.7343 20.2544 33.8538 20.3779L33.8389 20.4634C33.7408 20.4875 33.6228 20.5684 33.5096 20.6041L33.4978 20.6448C33.2743 20.6629 32.6535 20.6243 32.5271 20.7016C32.4492 20.8074 32.4641 20.7581 32.4684 20.8861C32.693 21.1619 33.0123 20.852 33.2116 21.1202C33.2086 21.2733 33.2326 21.2368 33.1467 21.3314C32.9277 21.3668 31.8004 21.3825 31.5712 21.3681C31.4433 21.182 31.5905 21.1616 31.4748 21.0288C31.2177 21.0018 31.079 20.9998 30.8204 21.0062C30.7087 21.0866 30.8148 21.1711 30.7222 21.3599C30.6186 21.4114 30.6652 21.4052 30.5456 21.3776C30.4664 21.2604 30.492 21.2481 30.4837 21.0833C30.3635 20.93 30.1216 21.0218 29.8678 20.9639C29.5826 20.6915 29.517 20.7199 29.4454 20.3462C29.3706 20.2882 29.0306 20.2875 28.9032 20.276C28.9153 21.1125 28.9142 21.9491 28.8998 22.7856C28.7339 22.7837 28.531 22.7629 28.3628 22.7503C28.3562 23.0534 28.3913 23.5004 28.2685 23.7655C28.1485 23.8625 28.2122 23.8079 28.0016 23.7959C27.8675 23.9523 27.9355 25.1529 27.9034 25.4998C28.5082 25.4901 28.5053 25.4812 28.5096 26.0853C28.731 26.0819 28.8868 26.0459 29.049 26.18C29.1079 26.3175 29.0697 26.529 29.0553 26.685L28.4822 26.6745C28.4846 26.8351 28.51 27.0661 28.523 27.2314L29.0631 27.2241C29.067 27.307 29.0731 27.5557 29.0985 27.6234C29.1702 27.8149 29.3226 27.7336 29.4971 27.8134C29.6044 27.9332 29.581 28.1589 29.5853 28.3317C28.7217 28.3097 28.9984 28.8154 28.988 29.5497C28.6695 29.5113 28.3194 29.5282 27.9641 29.489C27.9648 29.7348 28.0282 29.9511 27.8267 30.1068C27.6796 30.1494 27.5021 30.1099 27.3472 30.0882L27.3453 30.65C26.9782 30.656 26.6239 30.6641 26.2565 30.6479C26.2708 31.0152 26.2603 31.4328 26.2651 31.8059L25.6766 31.7966L25.7146 32.3717C25.5368 32.3817 25.3031 32.377 25.1206 32.3781C25.1409 32.5862 25.1859 32.7409 25.079 32.9096C24.9588 32.9835 24.7871 32.9611 24.6411 32.9572C24.6203 33.2038 24.6219 33.2887 24.646 33.5354L24.034 33.5206C24.0352 33.9012 24.0305 34.2819 24.02 34.6624L23.4163 34.6529C23.4315 34.8437 23.471 35.0002 23.3817 35.1542C23.2494 35.2377 22.9397 35.2431 22.8298 35.1213C22.7786 35.0095 22.8274 34.7894 22.8451 34.6571L22.2832 34.6667L22.3293 35.1964C21.7543 35.2224 21.1784 35.223 20.6033 35.1981C20.5944 34.9996 20.5608 34.87 20.6644 34.7169C20.7843 34.648 20.9591 34.6633 21.1024 34.6628L21.1131 34.0358C21.2714 34.0385 21.5529 34.0709 21.7194 34.0854C21.719 33.8589 21.6819 33.6622 21.8211 33.5029C21.9444 33.4452 22.1146 33.4654 22.2551 33.4702L22.291 32.9585C22.115 32.9497 21.9106 32.9529 21.7321 32.9511C21.7447 32.7607 21.7461 32.5571 21.7509 32.3654C22.0477 32.3386 22.5354 32.3493 22.8463 32.3466L22.8439 31.7833L23.9809 31.7721L24.0024 31.2292C24.8143 31.2394 24.5594 30.7436 24.5641 30.0633L25.0261 30.126C25.0079 29.8467 25.0336 29.2342 25.0313 28.9208C25.4132 28.9158 25.7781 28.9066 26.16 28.9342L26.1945 28.3559L26.7375 28.3708C26.741 28.323 26.7441 28.2752 26.747 28.2273C26.7585 28.0377 26.7813 27.9775 26.663 27.8439C26.5247 27.7942 26.3303 27.8337 26.1787 27.8515C26.1874 27.6244 26.2309 27.4432 26.1013 27.275C25.9681 27.2107 25.7768 27.2365 25.6238 27.2432C25.6272 26.8767 25.6328 26.5101 25.6407 26.1436C25.3771 26.1232 25.2814 26.1292 25.0177 26.1571C25.035 25.9583 25.0406 25.7434 25.0496 25.5429L24.5058 25.5436L24.533 24.378C24.3322 24.3879 24.1195 24.3853 23.9175 24.3863C23.9244 24.5886 23.9343 24.7908 23.9471 24.9928C23.0254 24.9373 23.5048 25.275 23.2533 25.534C23.1283 25.5831 22.9812 25.5444 22.8457 25.5226C22.8472 25.724 22.8467 25.9254 22.8445 26.1268C22.4723 26.1367 22.1288 26.1468 21.7558 26.1321L21.8121 26.6623C21.4131 26.685 21.0404 26.6979 20.6416 26.6669C20.6581 26.8583 20.6549 27.0329 20.6536 27.2241C20.8229 27.2216 21.0166 27.2027 21.1681 27.2695C21.2717 27.4054 21.1674 27.3711 21.2065 27.593C21.3742 27.8671 21.4938 27.6624 21.6972 27.7695C21.7909 27.9177 21.7904 28.2059 21.6794 28.3453C21.5662 28.3932 21.345 28.3494 21.213 28.3339C21.2043 28.7495 21.2006 29.1651 21.202 29.5808C20.6545 29.5519 20.0962 29.6195 19.5406 29.5542C19.5417 29.6362 19.5415 29.7182 19.54 29.8002C19.5301 30.3417 18.7813 30.1501 18.395 30.1234C18.4128 30.3099 18.4151 30.5093 18.4209 30.6974C18.0163 30.687 17.6617 30.7052 17.2569 30.653L17.2548 31.2497C17.0553 31.2541 16.8474 31.2319 16.6479 31.2156C16.6537 31.416 16.673 31.6118 16.6906 31.8114L16.1187 31.7906L16.1298 32.4013C15.9411 32.3998 15.7086 32.3824 15.5166 32.373C15.5406 32.7646 15.499 33.1439 15.5341 33.5642L14.9555 33.5377C14.9612 33.7277 14.9696 33.9176 14.9807 34.1073L13.1901 34.1009C13.2263 33.8398 13.2879 33.5016 12.907 33.5077C12.6152 33.6596 12.6557 33.8344 12.6814 34.11L12.1165 34.1082C12.134 33.8917 12.1272 33.7353 12.1192 33.52C12.9613 33.514 12.5293 33.3253 12.7569 33.0065C12.8933 32.935 13.0659 32.9589 13.2231 32.9649L13.2225 32.387C13.3895 32.3641 13.6058 32.3577 13.7774 32.3477C13.8222 31.7833 13.7752 31.7489 14.3523 31.7673C14.3453 31.4271 14.3614 31.0337 14.3673 30.6897C14.7144 30.6772 15.1239 30.6837 15.4753 30.6815L15.5168 30.1019C15.8989 30.0964 16.2572 30.0913 16.6399 30.1063C16.6389 29.852 16.5937 29.6588 16.7535 29.4877C16.8857 29.4302 17.0463 29.4631 17.1928 29.479C17.2092 29.2515 17.2203 29.144 17.2687 28.918L17.6975 28.9399C17.7185 28.5548 17.7128 28.3267 18.2038 28.3408C18.4254 28.3471 18.6552 28.3522 18.8775 28.3544C18.8934 28.1856 18.9039 27.9665 18.9584 27.8105C19.1947 27.7704 19.4515 27.7612 19.559 27.527C19.541 27.4013 19.5131 27.3793 19.4321 27.2873C19.3011 27.2482 19.0686 27.2662 18.924 27.2701C18.9208 26.9151 18.9366 26.5087 18.9427 26.1505C18.6782 26.1371 18.4865 26.1472 18.2211 26.1623C18.2186 25.0354 18.2259 23.9086 18.2429 22.7818C18.0386 22.7946 17.4269 22.8428 17.2856 22.7507C17.2017 22.2552 16.6872 22.6489 16.2492 22.4644C16.156 22.3047 16.2632 22.3352 16.2233 22.1171C15.9777 21.9477 15.8432 22.107 15.6655 22.0374C15.5797 21.9475 15.5811 21.7939 15.5674 21.6654C15.3703 21.6709 15.142 21.6643 14.9423 21.6632C14.9584 21.4727 14.9895 21.252 15.0118 21.0596C14.6455 21.0386 14.2181 21.0344 13.8545 21.0621C13.8628 20.8759 13.8608 20.6757 13.8624 20.4882C13.4956 20.4911 13.1372 20.4974 12.7705 20.476C12.7839 20.6978 12.8322 20.8768 12.695 21.0338C12.5611 21.0914 12.3621 21.0565 12.2106 21.0434L12.1979 21.6153L11.6259 21.5893C11.6364 21.8144 11.6766 21.9478 11.5364 22.1089C11.4033 22.1655 11.1687 22.1318 11.0154 22.1216C11.0344 21.8042 11.0271 21.4025 11.0302 21.0789C10.8498 21.0644 10.6222 21.0729 10.4377 21.0747L10.4822 20.5071C10.1708 20.4858 9.7023 20.5067 9.38798 20.5195C9.38657 20.2802 9.39318 20.0774 9.41829 19.8396C9.47531 19.3005 9.19087 19.3564 8.80992 19.3934L8.82044 18.6866C8.99073 18.7002 9.17544 18.7394 9.31654 18.6584C9.47722 18.4879 9.39658 17.9597 9.40402 17.6398L8.89223 17.5908C8.86401 17.8078 8.8574 18.0188 8.84732 18.2371C8.47895 18.1989 8.14913 18.2303 7.75351 18.1775L7.7384 18.7887C7.64468 18.7889 7.27291 18.7524 7.2393 18.8408C7.01886 19.4204 7.38394 19.2143 7.65512 19.3432C7.77237 19.4784 7.77269 19.8324 7.66036 19.9598C7.52547 20.0089 7.33686 19.9751 7.1889 19.9607C7.19569 20.1632 7.24859 20.2116 7.19074 20.4291C7.05752 20.5499 6.9652 20.3944 6.77485 20.5141C6.54219 20.6604 6.59881 20.7435 6.63646 20.9756L6.58595 21.0344C6.41923 21.1052 6.22469 21.0819 6.04103 21.0757L6.00844 21.568C6.20196 21.5906 6.45114 21.5867 6.64987 21.5894C6.64141 21.9967 6.63628 22.3535 6.65258 22.7616C6.33193 22.7872 5.78922 22.7962 5.47985 22.7613L5.50276 23.3815C5.11588 23.3846 4.75047 23.3873 4.36309 23.3712C4.39283 23.5744 4.43442 23.6827 4.32476 23.8438C4.19876 23.9169 3.94005 23.8852 3.78251 23.8794C3.76817 23.6838 3.77185 23.5245 3.77586 23.3301C3.96625 23.3112 4.16187 23.3029 4.35319 23.2923C4.35536 23.1232 4.34904 22.9408 4.34647 22.7706C4.0659 22.7919 3.85521 22.8385 3.72412 22.5271C3.75339 22.1345 4.08596 22.1638 4.37563 22.1879C4.34445 21.9793 4.35558 21.8089 4.3615 21.5994L4.92167 21.6171C4.91423 21.2345 4.92247 20.8219 4.92319 20.437C5.10078 20.4483 5.28835 20.4484 5.46699 20.4516C5.47158 20.3449 5.47266 20.1184 5.51714 20.0333C5.61069 19.8543 5.73484 19.9329 5.9064 19.8814C6.07181 19.6616 5.96576 18.6446 6.03315 18.2194C5.67096 18.2225 5.34338 18.2286 4.98093 18.1974L4.9664 18.8195C4.57165 18.8152 4.17687 18.8155 3.78211 18.8206C3.76871 18.4188 3.77008 18.0166 3.78616 17.6149L4.32956 17.6416C4.35106 17.3168 4.35937 16.7857 4.32989 16.4708C4.52081 16.4831 4.7241 16.4755 4.91625 16.4724C4.92185 16.1992 4.94284 15.8066 4.91365 15.5425C4.87473 15.1903 4.61162 15.4627 4.39988 15.3105C4.32129 15.1382 4.35944 15.0334 4.37599 14.8339C4.90154 14.8263 5.47309 14.8203 5.99532 14.8542L5.99612 13.6527C6.39257 13.6453 6.75823 13.6388 7.15529 13.6538C7.13744 13.4361 7.09094 13.279 7.21853 13.1157C7.34524 13.0527 7.50585 13.0758 7.65035 13.0829L7.70899 12.5407C8.24878 12.5832 8.22385 12.49 8.25789 12.0083C8.83876 12.0717 8.78351 11.9577 8.79981 11.4154C9.19485 11.4146 9.58548 11.4184 9.97972 11.3896C9.97423 11.7789 9.97192 12.1683 9.97275 12.5577C10.2451 12.5359 10.7306 12.4146 10.9553 12.5852C11.0667 12.6697 11.0385 12.9015 11.0336 13.0329L11.6424 13.0449L11.5994 13.6215C11.9426 13.6307 12.3202 13.6248 12.6661 13.6259C12.6696 13.7566 12.6494 13.9583 12.6399 14.094L13.2954 14.0798C13.2872 13.6175 13.2997 13.1082 13.3078 12.6441C13.4466 12.6475 13.6252 12.6663 13.767 12.677C13.7673 12.4565 13.7765 12.2223 13.7815 12.0007C13.9695 12.0016 14.1721 12.0158 14.361 12.0254C14.3513 11.8689 14.3279 11.531 14.3834 11.3954C14.4393 11.2588 14.5413 11.3454 14.6868 11.2803C14.7648 11.1971 14.783 10.7861 14.81 10.6118C14.6693 10.6087 14.3201 10.6171 14.2072 10.5674C14.1473 10.541 14.1112 10.3722 14.092 10.2983L14.0273 10.2606C13.882 10.2792 13.9165 10.2558 13.8064 10.3368C13.7246 10.755 13.5298 10.554 13.1798 10.6052C13.0685 10.7014 13.1342 10.7129 13.0863 10.9148C12.9002 11.0432 12.902 10.9071 12.727 11.0056C12.6572 11.143 12.7204 11.3133 12.6986 11.4665C12.6653 11.7005 12.4719 11.5218 12.2923 11.6467C12.2737 11.7164 12.2627 11.7692 12.2502 11.8402C12.1404 11.9094 11.8859 11.9202 11.7636 11.8691C11.5506 11.78 11.6062 11.5184 11.5404 11.3154C11.4408 11.2494 11.4883 11.2641 11.3471 11.2779C11.2691 11.3619 11.2899 11.402 11.2748 11.5383C11.1995 11.6159 11.1579 11.6129 11.0253 11.611C10.8799 11.6101 10.7411 11.5504 10.6406 11.4454C10.2709 11.0591 10.3918 10.2082 10.4061 9.65879C10.8674 9.35975 11.45 8.3777 11.9608 8.20582C11.9641 8.15407 11.9838 7.8627 11.9969 7.83513C12.2574 7.28573 12.8673 6.91562 13.3326 6.55065C13.4715 6.44167 13.446 6.12012 13.4486 5.94098C13.493 5.94264 13.7793 5.95192 13.7995 5.91745C14.0065 5.564 13.7144 4.48352 13.969 4.19833L14.0581 4.20451C14.1755 4.32631 14.1052 4.34163 14.1882 4.52985C14.3432 4.6002 14.5335 4.49801 14.7443 4.55463C14.8565 4.67817 14.7624 4.67716 14.8431 4.86107C15.231 5.01598 15.0961 4.63889 15.2698 4.50217C15.496 4.58954 15.7803 5.16929 15.8701 5.19353C16.2552 5.29763 17.7276 5.03892 17.9536 5.35566C17.8869 5.53441 17.4465 5.48241 17.2051 5.60971C17.1888 5.70492 17.1977 5.68288 17.2353 5.78716C17.5254 6.08634 18.4611 5.71872 18.6217 6.02665C18.5371 6.19293 18.291 6.22249 18.1526 6.4176C18.214 6.65659 18.7778 6.47813 18.926 6.6288C18.9851 7.04194 18.6508 6.84502 18.4998 7.10803L18.5283 7.17791C18.6827 7.29791 19.0288 7.25224 19.227 7.24212C19.291 6.70519 19.2291 6.13071 19.2731 5.56913C19.1194 5.57445 18.7635 5.60834 18.6515 5.53669C18.5844 5.22135 18.5 5.30262 18.2621 5.16672C18.2795 5.17669 18.1625 4.95423 18.1572 4.94519C18.0451 4.88315 17.7861 4.90107 17.6094 4.87513C17.4978 4.78346 17.5434 4.78754 17.5194 4.5865C17.2999 4.44822 17.0736 4.68688 16.8599 4.42997C16.8435 4.30987 16.8317 4.35316 16.8966 4.26492C17.1609 4.13939 18.0554 4.32291 18.2157 4.15424C18.2106 4.05629 18.1993 3.99877 18.2442 3.90963C18.3996 3.79949 19.2688 3.8233 19.5104 3.81521C19.6296 3.57638 21.406 1.77116 21.5895 1.69247C21.6116 1.52276 21.6246 1.32535 21.6403 1.15276ZM8.30327 13.6257C8.28914 13.9595 8.36094 14.5175 8.22822 14.7306C8.04774 14.8505 7.98718 14.8069 7.75264 14.7614C7.74664 15.0025 7.74093 15.1517 7.77045 15.392C7.40157 15.3923 7.00942 15.3996 6.64257 15.3854C6.64694 15.7445 6.65529 16.1081 6.64195 16.4666C6.83967 16.4722 7.03732 16.4803 7.23482 16.4908C7.22105 16.6328 7.18517 16.8135 7.24573 16.9361C7.33296 17.0147 7.36313 17.0154 7.47424 17.0364C7.81222 16.9415 7.69215 16.2063 7.70523 15.8804C7.85005 15.8916 8.02602 15.9234 8.15035 15.8589C8.25109 15.7683 8.24654 15.6449 8.25387 15.5127C8.25651 15.4629 8.25868 15.4132 8.26034 15.3634C8.60942 15.3754 9.07012 15.3518 9.39549 15.3803L9.40048 15.8827C9.55639 15.8804 9.7458 15.8591 9.87739 15.9328C10.1078 16.164 9.79949 16.4716 10.243 16.4746C10.2959 16.4748 10.3488 16.4742 10.4017 16.4728C10.5118 16.5784 10.5139 16.6422 10.5077 16.8165C10.4892 17.3408 10.5497 18.1882 10.4865 18.6853L11.5673 18.6756C11.5716 18.4908 11.5746 18.3109 11.5885 18.1263L12.1475 18.146C12.1518 17.7943 12.1622 17.4428 12.1788 17.0916C11.9619 17.0782 11.7909 17.0651 11.5729 17.0775C11.5766 16.9052 11.5905 16.6371 11.574 16.4728C11.3834 16.4663 11.1926 16.4632 11.0019 16.4636C11.024 16.0917 11.0179 15.7432 11.0349 15.3804L10.4278 15.3813C10.4352 15.2282 10.4668 14.9902 10.4011 14.8628C10.3039 14.7624 10.185 14.7745 10.0496 14.7725C10.0002 14.7719 9.95082 14.7716 9.90139 14.7717L9.91219 14.2341L9.39983 14.2469C9.4003 13.894 9.39242 13.5013 9.40976 13.1519C9.25129 13.1469 9.01335 13.1318 8.86112 13.1383C8.86015 13.2815 8.87655 13.4841 8.80898 13.602C8.64957 13.6959 8.49784 13.6509 8.30327 13.6257ZM6.17035 17.6265C6.10108 17.743 6.03116 17.8524 6.06932 17.9933C6.08771 18.0593 6.13194 18.115 6.19203 18.1479C6.27766 18.1944 6.37114 18.2176 6.4674 18.227C6.563 17.9895 6.66486 17.8153 6.43376 17.6374C6.31127 17.6151 6.29208 17.6158 6.17035 17.6265ZM21.9233 5.22674C21.9701 5.10996 21.9762 5.0941 21.9667 4.96665C21.9102 4.89388 21.9275 4.88886 21.8353 4.88424C21.1047 4.84774 20.3068 4.90888 19.5804 4.88192C19.551 5.04271 19.5332 5.01446 19.5802 5.15288C19.698 5.24025 21.6413 5.24058 21.9233 5.22674ZM13.1025 7.92488L13.7957 7.92275C13.8485 7.81775 13.8551 7.8038 13.8527 7.68684C13.7217 7.51637 13.3555 7.60063 13.1166 7.54603C13.1009 7.69566 13.0903 7.77544 13.1025 7.92488ZM7.07277 17.6528C7.10315 17.516 7.17282 17.2912 7.13199 17.1683C7.00469 17.0388 6.90319 17.0734 6.72665 17.0838C6.55487 17.4784 6.65453 17.6181 7.07277 17.6528ZM11.3215 9.91801C11.2857 10.0398 11.275 10.0935 11.2578 10.2194C11.1439 10.2793 10.985 10.3442 10.925 10.4512C10.9396 10.6079 11.1044 10.5973 11.2382 10.614C11.2453 10.6008 11.3869 10.2954 11.3541 10.3203C11.4899 10.2172 11.5637 10.2103 11.6353 10.0546C11.6033 9.95454 11.4187 9.9201 11.3215 9.91801ZM21.2162 5.89932C21.2725 5.85281 21.2993 5.77961 21.2864 5.70774C21.2735 5.63591 21.2229 5.57658 21.154 5.55251C21.0851 5.52845 21.0086 5.54337 20.9537 5.59157C20.8707 5.66452 20.8617 5.79063 20.9334 5.87474C21.0051 5.95883 21.1311 5.96977 21.2162 5.89932ZM11.908 11.2662C11.9913 11.2155 12.0197 11.1079 11.9723 11.0226C11.9248 10.9373 11.8184 10.9048 11.7313 10.9489C11.6719 10.979 11.6337 11.0392 11.6318 11.1058C11.6299 11.1724 11.6646 11.2347 11.7222 11.2681C11.7798 11.3016 11.851 11.3009 11.908 11.2662ZM19.8938 5.90571C19.9101 5.73748 19.9373 5.73018 19.8756 5.59804C19.7689 5.54247 19.6899 5.55349 19.5694 5.55497C19.5694 5.67338 19.5524 5.82445 19.6238 5.91062C19.7266 5.95142 19.7871 5.92826 19.8938 5.90571ZM14.4649 5.18464C14.4793 5.07502 14.4968 5.02122 14.4406 4.92373C14.3395 4.84518 14.3113 4.84438 14.1873 4.82086C14.1717 4.93551 14.1391 5.06241 14.191 5.16174C14.2989 5.21966 14.3214 5.20307 14.4649 5.18464ZM21.6173 3.16397C21.2619 3.17098 20.9065 3.15885 20.5524 3.12762C20.522 3.298 20.5452 3.34981 20.4032 3.44799L20.373 3.46848C20.1619 3.61464 20.2381 4.00213 20.2316 4.22987C20.4448 4.22882 21.0906 4.23634 21.2688 4.20964C21.2761 4.12483 21.2668 3.93463 21.3501 3.8959C21.6311 3.76509 21.5965 3.44805 21.6173 3.16397Z" fill="white"/>
<path d="M20.5896 3.54601C20.7786 3.53399 21.0667 3.48771 21.2144 3.59601C21.2661 3.71689 21.2524 3.67783 21.2348 3.8185C21.0515 3.82012 20.743 3.8461 20.5994 3.74833C20.5484 3.64015 20.5578 3.68838 20.5896 3.54601Z" fill="white"/>
<path d="M30.4576 5.57775C30.4231 5.25151 30.4362 4.70496 30.4469 4.36705C30.4549 4.11654 30.6571 4.27736 30.7934 4.17348C30.8326 4.00846 30.8248 3.05539 30.816 2.84386C30.6723 2.70235 30.5485 2.88266 30.3903 2.63983C30.4706 2.34913 30.6465 2.56342 30.8241 2.38702C30.8539 1.84323 30.5756 2.2299 30.3776 1.9384L30.3937 1.87386C30.595 1.66626 30.8219 1.81811 31.0605 1.74301C31.1262 1.72235 31.2011 1.43713 31.3711 1.38574C31.5938 1.56787 31.3635 1.87116 31.5283 2.08614C31.6299 2.09357 31.6593 2.09554 31.7563 2.1253C31.8206 2.21397 31.8079 2.26402 31.802 2.37128C31.7211 2.48035 31.6937 2.42691 31.5043 2.48208C31.437 2.57429 31.4583 2.55199 31.469 2.69383C31.4025 2.80524 31.2439 2.72958 31.2104 2.78136C30.9862 3.12736 31.242 4.06888 31.1159 4.50207C31.0877 4.59887 30.9176 4.50305 30.7781 4.56596C30.7497 4.67927 30.7601 5.39773 30.7557 5.57114L31.4601 5.55441C31.4334 6.04849 31.4885 6.73132 31.4367 7.19187C31.3522 7.25005 31.32 7.24694 31.2194 7.26049C31.0966 7.18262 31.2097 7.17301 31.1306 6.98848C30.9357 6.88337 30.2393 6.87401 30.0821 7.01486C30.0435 7.1187 30.0691 7.16156 30.1052 7.26396L30.069 7.34659C30.0586 7.50121 30.0362 7.47049 30.112 7.57004C30.3072 7.6414 30.7199 7.74069 30.8335 7.508C30.8011 7.42489 30.7967 7.41124 30.7359 7.34656L30.747 7.27176C30.919 7.26558 30.9452 7.23708 31.0765 7.30699C31.1374 7.4147 31.1237 7.72758 31.1556 7.93158C30.9153 7.91973 30.6623 7.91778 30.4208 7.91247C30.4257 8.16486 30.4828 8.73915 30.3283 8.9132L30.1665 8.89087C29.9892 9.03168 30.1369 9.1468 29.9764 9.29773L29.8645 9.28877C29.7283 9.14182 29.7464 8.44478 29.8412 8.27665C29.916 8.27387 29.9815 8.27441 30.0562 8.27611L30.1065 8.22386C30.1339 8.01198 30.123 7.99807 29.9714 7.88866C29.8264 7.90947 29.8223 8.09657 29.6927 8.18108C29.5503 8.27387 29.162 8.30596 29.0615 8.16742C29.11 7.83988 29.2873 8.05877 29.4555 7.87681C29.4841 7.84584 29.4145 7.73079 29.5459 7.60556C29.6432 7.61004 29.6716 7.61748 29.7627 7.58283C29.9808 7.03928 29.6281 7.03343 29.4497 6.80565C29.4611 6.68428 29.4457 6.73176 29.5223 6.62415L29.7267 6.59453C29.8715 6.44439 29.6878 6.31005 29.8974 6.24241C30.0603 6.32133 30.0919 6.53216 30.2861 6.65089L30.3506 6.63395C30.4634 6.42994 30.4562 6.1205 30.4698 5.8822C30.1852 5.88994 29.6454 5.94276 29.4227 5.77063L29.4235 5.686C29.6582 5.50696 30.1664 5.5629 30.4576 5.57775ZM31.1009 6.61985C31.1689 6.5211 31.1658 6.0999 31.1469 5.98869C31.1426 5.96372 31.1373 5.93897 31.131 5.91447C31.0211 5.86952 30.9041 5.86598 30.7853 5.85456C30.7491 6.04885 30.656 6.6032 30.949 6.61357C30.9987 6.61534 31.051 6.61888 31.1009 6.61985Z" fill="white"/>
<path d="M23.4988 9.59486C23.9035 9.59772 23.4308 9.88425 23.8883 9.95041C24.3144 10.0121 26.236 9.81676 26.4636 10.0354C26.4781 10.1607 26.4881 10.1117 26.4278 10.2202C26.324 10.2909 25.5403 10.2614 25.3571 10.2605C25.1101 10.2652 24.1552 10.2101 24.015 10.3034C24.0141 10.4059 24.0182 10.4407 23.9787 10.5372C23.8514 10.6128 23.9039 10.6031 23.7739 10.5966C23.7013 10.4937 23.7181 10.4069 23.7064 10.2641C23.4851 10.2689 22.7795 10.3276 22.6348 10.1544L22.6421 10.0854C22.7642 9.95103 22.7526 9.98824 22.9517 9.92476C23.0642 9.82915 23.0658 9.78409 23.0966 9.63689C23.1914 9.57546 23.378 9.59338 23.4988 9.59486Z" fill="white"/>
<path d="M22.2955 6.6084C22.3971 6.61122 22.436 6.62115 22.5334 6.6428C22.6271 6.76789 22.5749 7.73094 22.5702 7.94791C22.889 7.94546 24.2946 7.86206 24.4422 8.10426C24.3522 8.27542 24.2092 8.2454 24.0374 8.24232C23.6196 8.25309 23.0319 8.21273 22.6386 8.25855C22.5428 8.3552 22.6098 8.39502 22.5327 8.57919C22.4264 8.65641 22.465 8.65319 22.3619 8.64289C22.2424 8.41912 22.2531 6.85027 22.2955 6.6084Z" fill="white"/>
<path d="M33.854 20.3779C33.9187 20.4579 33.92 20.4837 33.9427 20.5852C34.0889 20.7313 34.1884 20.6079 34.3676 20.7595L34.3473 20.9246C34.5567 21.1105 34.8156 20.9212 34.9137 21.1923C34.8951 21.2457 34.8799 21.3292 34.8245 21.3349C34.6469 21.353 34.05 21.3841 33.9116 21.3288C33.8894 21.235 33.9004 21.217 33.9233 21.1197C33.8191 20.9132 33.7221 21.0582 33.5838 20.8947C33.5658 20.7249 33.5959 20.7346 33.498 20.6448L33.5098 20.6041C33.6231 20.5684 33.7411 20.4876 33.8391 20.4635L33.854 20.3779Z" fill="white" fill-opacity="0.960784"/>
<path d="M22.3715 12.3148C22.4674 12.3144 22.4946 12.3093 22.5785 12.3532C22.6814 12.536 22.7132 12.7783 22.5911 12.9588C22.4886 13.0067 22.4499 13.0108 22.3423 13.03C22.0986 13.3504 22.0157 13.2994 21.8637 13.6604L21.7303 13.7117L21.6873 13.664C21.6692 13.5003 21.6206 13.216 21.7126 13.0834C21.8781 13.004 21.9372 12.9807 21.9713 12.7915L21.9765 12.7618C22.1122 12.6312 22.1118 12.7154 22.2764 12.6343C22.3215 12.6121 22.3287 12.4424 22.3635 12.3381L22.3715 12.3148Z" fill="white" fill-opacity="0.984314"/>
<path d="M27.8521 9.22656C28.1162 9.29157 28.0024 9.69712 27.9906 9.92364C27.6219 9.90178 27.0689 9.91865 26.6868 9.91926C26.6103 9.91215 26.5741 9.89657 26.5008 9.87222C26.4263 9.76126 26.4482 9.79078 26.4409 9.64267C26.5729 9.53763 27.3733 9.63071 27.6588 9.60231C27.7679 9.50067 27.7319 9.38157 27.8521 9.22656Z" fill="white" fill-opacity="0.968627"/>
<path d="M26.9644 8.29603L27.0487 8.24848C27.0857 8.05542 27.0169 8.12628 27.1187 7.98221C27.3439 7.90612 27.333 7.93524 27.4181 7.70887C27.5757 7.6082 27.8865 7.57128 28.0472 7.67873C28.0919 7.84093 27.5374 8.25296 27.3944 8.31698C27.3766 8.37411 27.3714 8.3688 27.3763 8.42495C27.1327 8.43528 27.224 8.39239 26.9946 8.30698L26.9644 8.29603Z" fill="white" fill-opacity="0.976471"/>
<path d="M24.7484 9.25823C25.0302 9.26834 25.9214 9.18773 26.0919 9.37591C26.103 9.49403 26.115 9.4454 26.0241 9.56001C25.7542 9.56774 24.838 9.64517 24.6763 9.45222C24.6665 9.32612 24.653 9.37761 24.7484 9.25823Z" fill="white"/>
<path d="M21.0011 8.60654C21.3339 8.62725 22.0269 8.51957 22.2685 8.69662C22.31 8.81087 22.2969 8.77777 22.2407 8.91942C21.9951 8.93217 21.1317 9.00556 20.9747 8.84733C20.9423 8.74283 20.9644 8.70667 21.0011 8.60654Z" fill="white" fill-opacity="0.988235"/>
<path d="M25.1145 7.95596C25.3763 7.94902 26.2877 7.87661 26.444 8.05941C26.4489 8.17399 26.4576 8.12835 26.3723 8.24513C26.0614 8.23671 25.2195 8.33135 25.021 8.13327C25.0258 8.01901 25.0123 8.06382 25.1145 7.95596Z" fill="white"/>
<path d="M23.5168 10.5659C23.6029 10.5859 23.6151 10.5833 23.6738 10.644C23.6897 10.7663 23.7138 11.0424 23.6669 11.1491C23.5764 11.355 23.5261 11.1931 23.3226 11.2911C23.2969 11.4088 23.2727 11.5018 23.2387 11.6173C23.1588 11.6258 23.1624 11.6282 23.0913 11.5933C23.0164 11.4695 23.0494 11.1984 23.0551 11.0398C23.4499 10.8343 23.2173 10.81 23.5168 10.5659Z" fill="white" fill-opacity="0.984314"/>
<path d="M20.6936 12.0055C20.9502 11.9986 21.519 11.9449 21.703 12.1328C21.674 12.2436 21.6827 12.2107 21.5712 12.2927C21.3226 12.3108 20.6748 12.3678 20.5249 12.1486C20.5726 12.0443 20.5705 12.0708 20.6936 12.0055Z" fill="white"/>
<path d="M22.0342 10.5649C22.1197 10.5711 22.1237 10.5725 22.2029 10.6071C22.3417 10.8204 22.3416 11.0077 22.2115 11.2153C22.0729 11.3032 22.0402 11.2703 21.8513 11.2645L21.7715 11.2656C21.6655 11.1837 21.6846 11.2205 21.647 11.1168C21.6948 11.0144 21.8352 10.9649 21.9443 10.9107C21.9725 10.795 22.0024 10.6797 22.0342 10.5649Z" fill="white" fill-opacity="0.984314"/>
<path d="M27.3767 8.42468C27.3698 8.51104 27.3757 8.48094 27.3162 8.55888C27.0813 8.66258 26.5739 8.63855 26.3945 8.42917L26.4266 8.33352C26.5898 8.22382 26.7663 8.27372 26.9647 8.29576L26.995 8.30671C27.2244 8.39213 27.1331 8.43502 27.3767 8.42468Z" fill="white" fill-opacity="0.984314"/>
<path d="M21.3214 13.6362C21.4679 13.6506 21.5095 13.6542 21.6042 13.7469C21.6551 13.9035 21.6117 14.2078 21.6048 14.402C21.1451 14.3637 21.2979 14.0046 21.3214 13.6362Z" fill="white" fill-opacity="0.960784"/>
<path d="M20.9735 12.6683C21.1633 12.6702 21.5425 12.637 21.667 12.7907C21.6947 12.8843 21.6809 12.9037 21.6426 12.9955C21.4342 12.9924 21.1518 13.0453 20.9921 12.9394C20.9327 12.8075 20.9538 12.8323 20.9735 12.6683Z" fill="white"/>
<path d="M22.7327 11.5908C22.8953 11.6135 22.8754 11.585 22.9736 11.6808C23.0387 11.8613 22.988 12.1032 22.9711 12.3038C22.8824 12.3143 22.8532 12.3135 22.7638 12.3068C22.6086 12.1659 22.6641 11.7652 22.7327 11.5908Z" fill="white" fill-opacity="0.988235"/>
<path d="M28.8984 8.21484L29.0153 8.24057C29.0891 8.34882 29.0739 8.29788 29.0676 8.43442C28.9784 8.57834 28.6745 8.9074 28.5155 8.97775C28.429 8.87607 28.3668 8.80695 28.4167 8.6738C28.5008 8.59962 28.6351 8.61379 28.752 8.61097L28.7915 8.54083C28.7586 8.33918 28.7533 8.34785 28.8984 8.21484Z" fill="white" fill-opacity="0.968627"/>
<path d="M28.0544 7.28663C28.2579 7.29248 28.5396 7.26101 28.7017 7.33953C28.7804 7.45764 28.7563 7.42682 28.7498 7.59386C28.5259 7.59376 28.2902 7.65435 28.1065 7.55448C28.0276 7.42563 28.0517 7.45847 28.0544 7.28663Z" fill="white" fill-opacity="0.968627"/>
<path d="M24.4852 8.25244C24.6908 8.27961 24.8531 8.22419 25.0063 8.34642C25.0416 8.44926 25.0072 8.51206 24.9717 8.61366C24.7679 8.59046 24.4655 8.65865 24.3813 8.4438C24.4073 8.34303 24.4172 8.33204 24.4852 8.25244Z" fill="white" fill-opacity="0.980392"/>
<path d="M35.6776 12.2695C35.9692 12.3768 35.9372 12.8569 35.8036 13.045C35.7742 13.0336 35.6741 12.9991 35.6587 12.9829C35.5216 12.8379 35.5508 12.3987 35.6776 12.2695Z" fill="white" fill-opacity="0.984314"/>
<path d="M29.267 5.87061L29.3609 5.91252C29.4836 6.04003 29.4632 6.46373 29.3562 6.59969C28.9974 6.48089 29.0331 6.06402 29.267 5.87061Z" fill="white" fill-opacity="0.956863"/>
<path d="M28.0953 8.97459C28.1459 8.93398 28.2144 8.92383 28.2745 8.948C28.3347 8.97221 28.3771 9.02699 28.3854 9.09127C28.3938 9.15555 28.3668 9.21936 28.3148 9.25809C28.2365 9.31655 28.1257 9.30145 28.0659 9.22413C28.006 9.14684 28.0191 9.03584 28.0953 8.97459Z" fill="white" fill-opacity="0.972549"/>
<path d="M28.8445 6.9292C28.9613 6.94669 29.0411 6.94745 29.1271 7.03019C29.1388 7.1577 29.1383 7.11684 29.0575 7.24334C28.9208 7.25411 28.8553 7.26245 28.766 7.16139C28.7536 7.0591 28.7918 7.01592 28.8445 6.9292Z" fill="white" fill-opacity="0.964706"/>
<path d="M23.7926 9.26697C23.8687 9.23011 23.9604 9.25497 24.0075 9.32525C24.0546 9.39557 24.0427 9.4898 23.9797 9.5462C23.9302 9.59043 23.8596 9.60181 23.7988 9.57536C23.738 9.54891 23.6981 9.48948 23.6968 9.42317C23.6955 9.35687 23.7329 9.29584 23.7926 9.26697Z" fill="white" fill-opacity="0.988235"/>
<path d="M30.1051 7.26416C30.332 7.2577 30.5202 7.26265 30.7469 7.27197L30.7357 7.34676L30.0688 7.3468L30.1051 7.26416Z" fill="white" fill-opacity="0.933333"/>
</svg>
